G04*
G04 #@! TF.GenerationSoftware,Altium Limited,Altium Designer,26.2.0 (7)*
G04*
G04 Layer_Color=16711935*
%FSLAX25Y25*%
%MOIN*%
G70*
G04*
G04 #@! TF.SameCoordinates,7CB7E1A2-32B0-48F4-9345-C4D6F465B00F*
G04*
G04*
G04 #@! TF.FilePolarity,Negative*
G04*
G01*
G75*
%ADD14R,0.06065X0.06065*%
%ADD15C,0.06065*%
%ADD16C,0.06800*%
%ADD17R,0.07099X0.07099*%
%ADD18C,0.07099*%
%ADD19R,0.06181X0.06181*%
%ADD20C,0.06181*%
%ADD21C,0.04724*%
%ADD22R,0.04724X0.04724*%
%ADD23R,0.07887X0.07887*%
%ADD24C,0.07887*%
%ADD25C,0.06706*%
%ADD26C,0.04331*%
%ADD27C,0.06115*%
%ADD28R,0.06115X0.06115*%
%ADD29R,0.06706X0.06706*%
%ADD30R,0.04724X0.04724*%
%ADD31R,0.06181X0.06181*%
%ADD32R,0.04331X0.04331*%
%ADD33C,0.05800*%
D14*
X196650Y122000D02*
D03*
X178850D02*
D03*
D15*
X216350D02*
D03*
X159150D02*
D03*
D16*
X218500Y156000D02*
D03*
X218000Y147500D02*
D03*
X198000D02*
D03*
Y156000D02*
D03*
D17*
X75642Y17405D02*
D03*
D18*
X95642D02*
D03*
D19*
X54760Y12957D02*
D03*
X240000D02*
D03*
X327000D02*
D03*
X177231Y168000D02*
D03*
X326630Y38000D02*
D03*
X240000D02*
D03*
X362630Y168000D02*
D03*
X269930D02*
D03*
X84531D02*
D03*
D20*
X44760Y12957D02*
D03*
X170000D02*
D03*
X180000D02*
D03*
X190000D02*
D03*
X200000D02*
D03*
X210000D02*
D03*
X220000D02*
D03*
X230000D02*
D03*
X317000D02*
D03*
X307000D02*
D03*
X297000D02*
D03*
X287000D02*
D03*
X277000D02*
D03*
X267000D02*
D03*
X257000D02*
D03*
X107231Y168000D02*
D03*
X117231D02*
D03*
X127231D02*
D03*
X137231D02*
D03*
X147231D02*
D03*
X157231D02*
D03*
X167231D02*
D03*
X256630Y38000D02*
D03*
X266630D02*
D03*
X276630D02*
D03*
X286630D02*
D03*
X296630D02*
D03*
X306630D02*
D03*
X316630D02*
D03*
X209930Y168000D02*
D03*
X170000Y38000D02*
D03*
X180000D02*
D03*
X190000D02*
D03*
X200000D02*
D03*
X210000D02*
D03*
X220000D02*
D03*
X230000D02*
D03*
X14039Y82000D02*
D03*
Y72000D02*
D03*
Y62000D02*
D03*
Y52000D02*
D03*
Y42000D02*
D03*
Y32000D02*
D03*
Y22000D02*
D03*
X365681Y93000D02*
D03*
Y83000D02*
D03*
Y73000D02*
D03*
Y63000D02*
D03*
Y53000D02*
D03*
Y43000D02*
D03*
Y33000D02*
D03*
X352630Y168000D02*
D03*
X342630D02*
D03*
X332630D02*
D03*
X322630D02*
D03*
X312630D02*
D03*
X302630D02*
D03*
X292630D02*
D03*
X259930D02*
D03*
X249930D02*
D03*
X239930D02*
D03*
X229930D02*
D03*
X219930D02*
D03*
X199930D02*
D03*
X64531D02*
D03*
X74532D02*
D03*
X34532D02*
D03*
X44532D02*
D03*
X14532D02*
D03*
X54532D02*
D03*
X24532D02*
D03*
D21*
X325331Y79098D02*
D03*
X123902Y40968D02*
D03*
X86500Y79098D02*
D03*
X115437D02*
D03*
X295969D02*
D03*
D22*
X321394Y53902D02*
D03*
X292032D02*
D03*
X82563D02*
D03*
X111500D02*
D03*
D23*
X118000Y14000D02*
D03*
D24*
X128000D02*
D03*
X138000D02*
D03*
D25*
X84098Y119000D02*
D03*
X74098Y149000D02*
D03*
X296646D02*
D03*
X306646Y119000D02*
D03*
X124098Y149000D02*
D03*
X114098D02*
D03*
X144098D02*
D03*
X134098D02*
D03*
X144098Y119000D02*
D03*
X104098Y149000D02*
D03*
X94098Y119000D02*
D03*
X74098D02*
D03*
X84098Y149000D02*
D03*
X94098D02*
D03*
X296646Y119000D02*
D03*
X306646Y149000D02*
D03*
X316646D02*
D03*
X246646Y119000D02*
D03*
X256646D02*
D03*
X266646D02*
D03*
X276646D02*
D03*
X286646D02*
D03*
X316646D02*
D03*
X326646D02*
D03*
X336646D02*
D03*
X346646D02*
D03*
X356646D02*
D03*
X366646D02*
D03*
X236646Y149000D02*
D03*
X246646D02*
D03*
X256646D02*
D03*
X266646D02*
D03*
X276646D02*
D03*
X286646D02*
D03*
X326646D02*
D03*
X336646D02*
D03*
X346646D02*
D03*
X356646D02*
D03*
X366646D02*
D03*
X64098D02*
D03*
X54098D02*
D03*
X44098D02*
D03*
X34098D02*
D03*
X24098D02*
D03*
X14098D02*
D03*
X134098Y119000D02*
D03*
X124098D02*
D03*
X114098D02*
D03*
X104098D02*
D03*
X64098D02*
D03*
X54098D02*
D03*
X44098D02*
D03*
X34098D02*
D03*
X24098D02*
D03*
D26*
X89394Y94000D02*
D03*
X299287D02*
D03*
D27*
X160525Y104255D02*
D03*
X214271D02*
D03*
D28*
X160525Y68822D02*
D03*
X214271D02*
D03*
D29*
X236646Y119000D02*
D03*
X14098D02*
D03*
D30*
X149098Y37031D02*
D03*
D31*
X14039Y92000D02*
D03*
X365681Y23000D02*
D03*
D32*
X108606Y94000D02*
D03*
X318500D02*
D03*
D33*
X188000Y131500D02*
D03*
M02*
