M48
;Layer_Color=9474304
;FILE_FORMAT=2:4
INCH,TZ
;TYPE=PLATED
T01F00S00C0.0236
T02F00S00C0.0276
T03F00S00C0.0280
T04F00S00C0.0300
T05F00S00C0.0335
T06F00S00C0.0354
T07F00S00C0.0390
T08F00S00C0.0402
T09F00S00C0.0429
T10F00S00C0.0472
%
T01
X8939Y9400
X10861
X29929
X31850
T02
X29203Y5390
X32139
X14910Y3703
X12390Y4097
X11150Y5390
X8256
X8650Y7910
X11544
X29597
X32533
T03
X18800Y13150
T04
X19800Y14750
Y15600
X21850
X21800Y14750
T05
X16053Y6882
Y10426
X21427
Y6882
T06
X1410Y11900
X2410
X3410
X4410
X5410
X6410
X7410
X8410
X9410
X10410
X11410
X12410
X13410
X14410
Y14900
X13410
X12410
X11410
X10410
X9410
X8410
X7410
X6410
X5410
X4410
X3410
X2410
X1410
X23665
X24665
X25665
X26665
X27665
X28665
X29665
X30665
X31665
Y11900
X30665
X29665
X28665
X27665
X26665
X25665
X24665
X23665
X32665
X33665
X34665
X35665
X36665
Y14900
X35665
X34665
X33665
X32665
T07
X15915Y12200
X17885
X19665
X21635
T08
X32700Y1296
X32663Y3800
X36568Y4300
Y5300
Y3300
Y2300
X31700Y1296
X30700
X29700
X28700
X27700
X26700
X25700
X24000
X23000
X22000
X21000
X20000
X19000
X18000
X17000
Y3800
X18000
X19000
X20000
X21000
X22000
X23000
X24000
X25663
X26663
X27663
X28663
X29663
X30663
X31663
X5476Y1296
X4476
X1404Y2200
Y3200
Y4200
Y5200
Y6200
Y7200
Y8200
Y9200
X1453Y16800
X2453
X3453
X4453
X5453
X6453
X7453
X8453
X10723
X11723
X12723
X13723
X14723
X15723
X16723
X17723
X19993
X20993
X21993
X22993
X23993
X24993
X25993
X26993
X29263
X30263
X31263
X32263
X33263
X34263
X35263
X36263
X36568Y9300
Y8300
Y7300
Y6300
T09
X7564Y1741
X9564
T10
X11800Y1400
X12800
X13800
M30
