G04*
G04 #@! TF.GenerationSoftware,Altium Limited,Altium Designer,26.2.0 (7)*
G04*
G04 Layer_Color=65535*
%FSLAX25Y25*%
%MOIN*%
G70*
G04*
G04 #@! TF.SameCoordinates,7CB7E1A2-32B0-48F4-9345-C4D6F465B00F*
G04*
G04*
G04 #@! TF.FilePolarity,Positive*
G04*
G01*
G75*
%ADD10C,0.00984*%
%ADD11C,0.00787*%
%ADD12C,0.02362*%
%ADD13C,0.01000*%
G36*
X46960Y24033D02*
X45500D01*
Y24505D01*
X46960D01*
Y24033D01*
D02*
G37*
G36*
X56367Y24993D02*
X57410D01*
Y24554D01*
X56367D01*
Y23500D01*
X55923D01*
Y24554D01*
X54879D01*
Y24993D01*
X55923D01*
Y26036D01*
X56367D01*
Y24993D01*
D02*
G37*
G36*
X229556Y151009D02*
X230993Y149000D01*
X230366D01*
X229395Y150365D01*
X229389Y150371D01*
X229378Y150388D01*
X229367Y150410D01*
X229345Y150437D01*
X229295Y150515D01*
X229239Y150598D01*
X229234Y150593D01*
X229217Y150571D01*
X229195Y150537D01*
X229167Y150493D01*
X229106Y150404D01*
X229078Y150365D01*
X229056Y150332D01*
X228085Y149000D01*
X227474D01*
X228956Y150987D01*
X227646Y152841D01*
X228251D01*
X228951Y151853D01*
Y151847D01*
X228962Y151842D01*
X228973Y151825D01*
X228989Y151803D01*
X229023Y151747D01*
X229073Y151681D01*
X229123Y151603D01*
X229173Y151525D01*
X229217Y151453D01*
X229256Y151386D01*
X229261Y151398D01*
X229278Y151420D01*
X229306Y151464D01*
X229345Y151520D01*
X229389Y151581D01*
X229445Y151658D01*
X229500Y151736D01*
X229567Y151819D01*
X230332Y152841D01*
X230888D01*
X229556Y151009D01*
D02*
G37*
G36*
X225826Y152835D02*
X225876D01*
X225992Y152830D01*
X226115Y152813D01*
X226248Y152796D01*
X226370Y152769D01*
X226431Y152752D01*
X226481Y152735D01*
X226486D01*
X226492Y152730D01*
X226525Y152713D01*
X226575Y152691D01*
X226636Y152652D01*
X226703Y152602D01*
X226775Y152535D01*
X226842Y152458D01*
X226908Y152369D01*
Y152363D01*
X226914Y152358D01*
X226936Y152324D01*
X226958Y152269D01*
X226991Y152197D01*
X227019Y152114D01*
X227047Y152014D01*
X227064Y151908D01*
X227069Y151792D01*
Y151786D01*
Y151775D01*
Y151753D01*
X227064Y151725D01*
Y151686D01*
X227058Y151647D01*
X227036Y151553D01*
X227003Y151442D01*
X226958Y151326D01*
X226892Y151209D01*
X226847Y151153D01*
X226803Y151098D01*
X226797Y151092D01*
X226792Y151087D01*
X226775Y151070D01*
X226753Y151054D01*
X226725Y151031D01*
X226692Y151009D01*
X226647Y150981D01*
X226603Y150948D01*
X226547Y150920D01*
X226486Y150893D01*
X226420Y150859D01*
X226348Y150831D01*
X226264Y150809D01*
X226181Y150782D01*
X226087Y150765D01*
X225987Y150748D01*
X225998Y150743D01*
X226020Y150732D01*
X226054Y150709D01*
X226098Y150687D01*
X226198Y150626D01*
X226248Y150587D01*
X226292Y150554D01*
X226303Y150543D01*
X226331Y150515D01*
X226375Y150471D01*
X226431Y150415D01*
X226492Y150338D01*
X226564Y150254D01*
X226636Y150154D01*
X226714Y150043D01*
X227374Y149000D01*
X226742D01*
X226237Y149799D01*
Y149805D01*
X226226Y149816D01*
X226214Y149832D01*
X226198Y149855D01*
X226159Y149916D01*
X226109Y149994D01*
X226048Y150077D01*
X225987Y150165D01*
X225926Y150249D01*
X225870Y150326D01*
X225865Y150332D01*
X225848Y150354D01*
X225820Y150388D01*
X225782Y150426D01*
X225698Y150510D01*
X225654Y150549D01*
X225609Y150582D01*
X225604Y150587D01*
X225593Y150593D01*
X225571Y150604D01*
X225537Y150621D01*
X225504Y150637D01*
X225465Y150654D01*
X225376Y150682D01*
X225371D01*
X225360Y150687D01*
X225338D01*
X225310Y150693D01*
X225271Y150698D01*
X225226D01*
X225166Y150704D01*
X224511D01*
Y149000D01*
X224000D01*
Y152841D01*
X225782D01*
X225826Y152835D01*
D02*
G37*
G36*
X228756Y143509D02*
X230193Y141500D01*
X229566D01*
X228595Y142865D01*
X228589Y142871D01*
X228578Y142887D01*
X228567Y142910D01*
X228545Y142937D01*
X228495Y143015D01*
X228439Y143098D01*
X228434Y143093D01*
X228417Y143071D01*
X228395Y143037D01*
X228367Y142993D01*
X228306Y142904D01*
X228278Y142865D01*
X228256Y142832D01*
X227285Y141500D01*
X226675D01*
X228156Y143487D01*
X226847Y145341D01*
X227452D01*
X228151Y144353D01*
Y144347D01*
X228162Y144342D01*
X228173Y144325D01*
X228190Y144303D01*
X228223Y144247D01*
X228273Y144181D01*
X228323Y144103D01*
X228373Y144025D01*
X228417Y143953D01*
X228456Y143886D01*
X228462Y143898D01*
X228478Y143920D01*
X228506Y143964D01*
X228545Y144020D01*
X228589Y144081D01*
X228645Y144158D01*
X228700Y144236D01*
X228767Y144319D01*
X229533Y145341D01*
X230088D01*
X228756Y143509D01*
D02*
G37*
G36*
X226541Y144886D02*
X225276D01*
Y141500D01*
X224765D01*
Y144886D01*
X223500D01*
Y145341D01*
X226541D01*
Y144886D01*
D02*
G37*
G36*
X190756Y147443D02*
X192193Y145434D01*
X191566D01*
X190595Y146800D01*
X190589Y146805D01*
X190578Y146822D01*
X190567Y146844D01*
X190545Y146872D01*
X190495Y146950D01*
X190439Y147033D01*
X190434Y147027D01*
X190417Y147005D01*
X190395Y146972D01*
X190367Y146927D01*
X190306Y146839D01*
X190278Y146800D01*
X190256Y146766D01*
X189285Y145434D01*
X188675D01*
X190156Y147421D01*
X188847Y149275D01*
X189452D01*
X190151Y148287D01*
Y148282D01*
X190162Y148276D01*
X190173Y148259D01*
X190190Y148237D01*
X190223Y148182D01*
X190273Y148115D01*
X190323Y148037D01*
X190373Y147960D01*
X190417Y147888D01*
X190456Y147821D01*
X190462Y147832D01*
X190478Y147854D01*
X190506Y147899D01*
X190545Y147954D01*
X190589Y148015D01*
X190645Y148093D01*
X190700Y148171D01*
X190767Y148254D01*
X191533Y149275D01*
X192088D01*
X190756Y147443D01*
D02*
G37*
G36*
X188541Y148820D02*
X187276D01*
Y145434D01*
X186765D01*
Y148820D01*
X185500D01*
Y149275D01*
X188541D01*
Y148820D01*
D02*
G37*
G36*
X191556Y155509D02*
X192993Y153500D01*
X192366D01*
X191395Y154865D01*
X191389Y154871D01*
X191378Y154887D01*
X191367Y154910D01*
X191345Y154937D01*
X191295Y155015D01*
X191239Y155098D01*
X191234Y155093D01*
X191217Y155071D01*
X191195Y155037D01*
X191167Y154993D01*
X191106Y154904D01*
X191078Y154865D01*
X191056Y154832D01*
X190085Y153500D01*
X189474D01*
X190956Y155487D01*
X189646Y157341D01*
X190251D01*
X190951Y156353D01*
Y156347D01*
X190962Y156342D01*
X190973Y156325D01*
X190989Y156303D01*
X191023Y156247D01*
X191073Y156181D01*
X191123Y156103D01*
X191173Y156025D01*
X191217Y155953D01*
X191256Y155886D01*
X191261Y155898D01*
X191278Y155920D01*
X191306Y155964D01*
X191345Y156020D01*
X191389Y156081D01*
X191445Y156158D01*
X191500Y156236D01*
X191567Y156319D01*
X192332Y157341D01*
X192888D01*
X191556Y155509D01*
D02*
G37*
G36*
X187826Y157335D02*
X187876D01*
X187993Y157329D01*
X188115Y157313D01*
X188248Y157296D01*
X188370Y157269D01*
X188431Y157252D01*
X188481Y157235D01*
X188486D01*
X188492Y157230D01*
X188525Y157213D01*
X188575Y157191D01*
X188636Y157152D01*
X188703Y157102D01*
X188775Y157035D01*
X188842Y156958D01*
X188908Y156869D01*
Y156863D01*
X188914Y156858D01*
X188936Y156825D01*
X188958Y156769D01*
X188991Y156697D01*
X189019Y156614D01*
X189047Y156514D01*
X189064Y156408D01*
X189069Y156292D01*
Y156286D01*
Y156275D01*
Y156253D01*
X189064Y156225D01*
Y156186D01*
X189058Y156147D01*
X189036Y156053D01*
X189003Y155942D01*
X188958Y155825D01*
X188892Y155709D01*
X188847Y155653D01*
X188803Y155598D01*
X188797Y155592D01*
X188792Y155587D01*
X188775Y155570D01*
X188753Y155553D01*
X188725Y155531D01*
X188692Y155509D01*
X188647Y155481D01*
X188603Y155448D01*
X188548Y155420D01*
X188486Y155393D01*
X188420Y155359D01*
X188348Y155332D01*
X188264Y155309D01*
X188181Y155281D01*
X188087Y155265D01*
X187987Y155248D01*
X187998Y155243D01*
X188020Y155232D01*
X188054Y155209D01*
X188098Y155187D01*
X188198Y155126D01*
X188248Y155087D01*
X188292Y155054D01*
X188303Y155043D01*
X188331Y155015D01*
X188375Y154971D01*
X188431Y154915D01*
X188492Y154838D01*
X188564Y154754D01*
X188636Y154654D01*
X188714Y154543D01*
X189374Y153500D01*
X188742D01*
X188237Y154299D01*
Y154305D01*
X188225Y154316D01*
X188215Y154332D01*
X188198Y154355D01*
X188159Y154416D01*
X188109Y154493D01*
X188048Y154577D01*
X187987Y154666D01*
X187926Y154749D01*
X187870Y154826D01*
X187865Y154832D01*
X187848Y154854D01*
X187820Y154887D01*
X187782Y154926D01*
X187698Y155010D01*
X187654Y155049D01*
X187610Y155082D01*
X187604Y155087D01*
X187593Y155093D01*
X187571Y155104D01*
X187537Y155121D01*
X187504Y155137D01*
X187465Y155154D01*
X187376Y155182D01*
X187371D01*
X187360Y155187D01*
X187338D01*
X187310Y155193D01*
X187271Y155198D01*
X187226D01*
X187165Y155204D01*
X186511D01*
Y153500D01*
X186000D01*
Y157341D01*
X187782D01*
X187826Y157335D01*
D02*
G37*
%LPC*%
G36*
X225721Y152413D02*
X224511D01*
Y151142D01*
X225654D01*
X225721Y151148D01*
X225798Y151153D01*
X225887Y151159D01*
X225976Y151170D01*
X226065Y151187D01*
X226142Y151209D01*
X226153Y151215D01*
X226176Y151225D01*
X226209Y151242D01*
X226253Y151264D01*
X226303Y151298D01*
X226353Y151337D01*
X226403Y151386D01*
X226442Y151442D01*
X226448Y151448D01*
X226459Y151470D01*
X226475Y151503D01*
X226498Y151548D01*
X226514Y151597D01*
X226531Y151653D01*
X226542Y151719D01*
X226547Y151786D01*
Y151792D01*
Y151797D01*
X226542Y151830D01*
X226536Y151880D01*
X226525Y151947D01*
X226498Y152014D01*
X226464Y152091D01*
X226414Y152164D01*
X226348Y152236D01*
X226337Y152241D01*
X226309Y152263D01*
X226264Y152291D01*
X226192Y152324D01*
X226109Y152358D01*
X225998Y152385D01*
X225870Y152408D01*
X225721Y152413D01*
D02*
G37*
G36*
X187721Y156913D02*
X186511D01*
Y155642D01*
X187654D01*
X187721Y155648D01*
X187798Y155653D01*
X187887Y155659D01*
X187976Y155670D01*
X188065Y155687D01*
X188142Y155709D01*
X188153Y155714D01*
X188176Y155726D01*
X188209Y155742D01*
X188253Y155764D01*
X188303Y155798D01*
X188353Y155837D01*
X188403Y155886D01*
X188442Y155942D01*
X188448Y155948D01*
X188459Y155970D01*
X188475Y156003D01*
X188497Y156047D01*
X188514Y156097D01*
X188531Y156153D01*
X188542Y156219D01*
X188548Y156286D01*
Y156292D01*
Y156297D01*
X188542Y156331D01*
X188536Y156380D01*
X188525Y156447D01*
X188497Y156514D01*
X188464Y156591D01*
X188414Y156664D01*
X188348Y156736D01*
X188337Y156741D01*
X188309Y156763D01*
X188264Y156791D01*
X188192Y156825D01*
X188109Y156858D01*
X187998Y156886D01*
X187870Y156908D01*
X187721Y156913D01*
D02*
G37*
%LPD*%
D10*
X63772Y17405D02*
G03*
X63772Y17405I-492J0D01*
G01*
X55252Y20142D02*
G03*
X55252Y20142I-492J0D01*
G01*
X248602Y12957D02*
G03*
X248602Y12957I-492J0D01*
G01*
X185833Y168000D02*
G03*
X185833Y168000I-492J0D01*
G01*
X335232Y38000D02*
G03*
X335232Y38000I-492J0D01*
G01*
X335602Y12957D02*
G03*
X335602Y12957I-492J0D01*
G01*
X232020Y119000D02*
G03*
X232020Y119000I-492J0D01*
G01*
X14532Y100110D02*
G03*
X14532Y100110I-492J0D01*
G01*
X366173Y14890D02*
G03*
X366173Y14890I-492J0D01*
G01*
X371232Y168000D02*
G03*
X371232Y168000I-492J0D01*
G01*
X278533D02*
G03*
X278533Y168000I-492J0D01*
G01*
X9472Y119000D02*
G03*
X9472Y119000I-492J0D01*
G01*
X93134Y168000D02*
G03*
X93134Y168000I-492J0D01*
G01*
X248602Y38000D02*
G03*
X248602Y38000I-492J0D01*
G01*
X110579Y9866D02*
G03*
X110579Y9866I-492J0D01*
G01*
D11*
X231961Y131500D02*
G03*
X231961Y136500I0J2500D01*
G01*
X9413Y131500D02*
G03*
X9413Y136500I0J2500D01*
G01*
X193700Y126508D02*
Y134800D01*
Y109200D02*
Y117492D01*
Y109200D02*
X219300D01*
Y126508D02*
Y134800D01*
Y109200D02*
Y117492D01*
X193700Y134800D02*
X219300D01*
X65642Y27406D02*
X105642D01*
X65640Y7405D02*
X105640D01*
X65640D02*
X65642Y27406D01*
X105640Y7405D02*
X105641Y27406D01*
X39012Y7701D02*
X60508D01*
X39012D02*
Y18213D01*
X60508D01*
Y7701D02*
Y18213D01*
X49760Y7701D02*
Y18213D01*
X164252Y7701D02*
X245748D01*
X164252D02*
Y18213D01*
X245748D01*
Y7701D02*
Y18213D01*
X315488Y51933D02*
X317555D01*
X325232D02*
X331236D01*
Y81067D01*
X315488D02*
X321492D01*
X329169D02*
X331236D01*
X315488Y51933D02*
Y81067D01*
X182979Y162744D02*
Y173256D01*
X101483D02*
X182979D01*
X101483Y162744D02*
Y173256D01*
Y162744D02*
X182979D01*
X332378Y32744D02*
Y43256D01*
X250882D02*
X332378D01*
X250882Y32744D02*
Y43256D01*
Y32744D02*
X332378D01*
X332748Y7701D02*
Y18213D01*
X251252D02*
X332748D01*
X251252Y7701D02*
Y18213D01*
Y7701D02*
X332748D01*
X155801Y74137D02*
X165250D01*
X155801D02*
Y98940D01*
X165250Y74137D02*
Y98940D01*
X155801D02*
X165250D01*
X209546D02*
X218995D01*
Y74137D02*
Y98940D01*
X209546Y74137D02*
Y98940D01*
Y74137D02*
X218995D01*
X231961Y123567D02*
X371331D01*
X231961Y144433D02*
X371331D01*
X231961Y123567D02*
Y131500D01*
Y136500D02*
Y144433D01*
X371331Y123567D02*
Y144433D01*
X121933Y31126D02*
X151067D01*
X121933Y44807D02*
Y46874D01*
Y31126D02*
Y37130D01*
Y46874D02*
X151067D01*
Y40870D02*
Y46874D01*
Y31126D02*
Y33193D01*
X105595Y51933D02*
Y81067D01*
X119276D02*
X121343D01*
X105595D02*
X111598D01*
X121343Y51933D02*
Y81067D01*
X115339Y51933D02*
X121343D01*
X105595D02*
X107661D01*
X76657D02*
Y81067D01*
X90339D02*
X92405D01*
X76657D02*
X82661D01*
X92405Y51933D02*
Y81067D01*
X86402Y51933D02*
X92405D01*
X76657D02*
X78724D01*
X286126D02*
Y81067D01*
X299807D02*
X301874D01*
X286126D02*
X292130D01*
X301874Y51933D02*
Y81067D01*
X295870Y51933D02*
X301874D01*
X286126D02*
X288193D01*
X181800Y109200D02*
Y117492D01*
Y126508D02*
Y134800D01*
X156200D02*
X181800D01*
X156200Y109200D02*
Y117492D01*
Y126508D02*
Y134800D01*
Y109200D02*
X181800D01*
X19295Y16252D02*
Y97748D01*
X8783Y16252D02*
X19295D01*
X8783D02*
Y97748D01*
X19295D01*
X360425Y17252D02*
X370937D01*
Y98748D01*
X360425D02*
X370937D01*
X360425Y17252D02*
Y98748D01*
X286882Y162744D02*
X368378D01*
X286882D02*
Y173256D01*
X368378D01*
Y162744D02*
Y173256D01*
X194182Y162744D02*
X275678D01*
X194182D02*
Y173256D01*
X275678D01*
Y162744D02*
Y173256D01*
X121343Y84847D02*
Y103154D01*
X76657D02*
X121343D01*
X76657Y84847D02*
Y103154D01*
Y84847D02*
X121343D01*
X148784Y123567D02*
Y144433D01*
X9413Y136500D02*
Y144433D01*
Y123567D02*
Y131500D01*
Y144433D02*
X148784D01*
X9413Y123567D02*
X148784D01*
X8783Y162744D02*
X90280D01*
X8783D02*
Y173256D01*
X90280D01*
Y162744D02*
Y173256D01*
X331236Y84847D02*
Y103154D01*
X286551D02*
X331236D01*
X286551Y84847D02*
Y103154D01*
Y84847D02*
X331236D01*
X245748Y32744D02*
Y43256D01*
X164252D02*
X245748D01*
X164252Y32744D02*
Y43256D01*
Y32744D02*
X245748D01*
X107528Y23449D02*
X148472D01*
X107527Y7307D02*
Y25417D01*
X107528Y7307D02*
X148472D01*
Y25417D01*
X107528D02*
X148472D01*
D12*
X237079Y127504D02*
G03*
X237079Y127504I-1181J0D01*
G01*
X14532D02*
G03*
X14532Y127504I-1181J0D01*
G01*
D13*
X207499Y158998D02*
X206499Y159998D01*
X204500D01*
X203500Y158998D01*
Y155000D01*
X204500Y154000D01*
X206499D01*
X207499Y155000D01*
X213497Y159998D02*
X211497Y158998D01*
X209498Y156999D01*
Y155000D01*
X210498Y154000D01*
X212497D01*
X213497Y155000D01*
Y155999D01*
X212497Y156999D01*
X209498D01*
X102000Y159998D02*
Y154000D01*
X104999D01*
X105999Y155000D01*
Y155999D01*
X104999Y156999D01*
X102000D01*
X104999D01*
X105999Y157999D01*
Y158998D01*
X104999Y159998D01*
X102000D01*
X107998D02*
X111997D01*
Y158998D01*
X107998Y155000D01*
Y154000D01*
X23999Y158998D02*
X22999Y159998D01*
X21000D01*
X20000Y158998D01*
Y155000D01*
X21000Y154000D01*
X22999D01*
X23999Y155000D01*
X29997Y159998D02*
X27997Y158998D01*
X25998Y156999D01*
Y155000D01*
X26998Y154000D01*
X28997D01*
X29997Y155000D01*
Y155999D01*
X28997Y156999D01*
X25998D01*
X84999Y158998D02*
X83999Y159998D01*
X82000D01*
X81000Y158998D01*
Y155000D01*
X82000Y154000D01*
X83999D01*
X84999Y155000D01*
X86998Y158998D02*
X87998Y159998D01*
X89997D01*
X90997Y158998D01*
Y155000D01*
X89997Y154000D01*
X87998D01*
X86998Y155000D01*
Y158998D01*
X288500Y159998D02*
Y154000D01*
X291499D01*
X292499Y155000D01*
Y155999D01*
X291499Y156999D01*
X288500D01*
X291499D01*
X292499Y157999D01*
Y158998D01*
X291499Y159998D01*
X288500D01*
X294498D02*
X298497D01*
Y158998D01*
X294498Y155000D01*
Y154000D01*
X268999Y158998D02*
X267999Y159998D01*
X266000D01*
X265000Y158998D01*
Y155000D01*
X266000Y154000D01*
X267999D01*
X268999Y155000D01*
X270998Y158998D02*
X271998Y159998D01*
X273997D01*
X274997Y158998D01*
Y155000D01*
X273997Y154000D01*
X271998D01*
X270998Y155000D01*
Y158998D01*
X173000Y159998D02*
Y154000D01*
X175999D01*
X176999Y155000D01*
Y155999D01*
X175999Y156999D01*
X173000D01*
X175999D01*
X176999Y157999D01*
Y158998D01*
X175999Y159998D01*
X173000D01*
X178998Y158998D02*
X179998Y159998D01*
X181997D01*
X182997Y158998D01*
Y155000D01*
X181997Y154000D01*
X179998D01*
X178998Y155000D01*
Y158998D01*
X359000Y159998D02*
Y154000D01*
X361999D01*
X362999Y155000D01*
Y155999D01*
X361999Y156999D01*
X359000D01*
X361999D01*
X362999Y157999D01*
Y158998D01*
X361999Y159998D01*
X359000D01*
X364998Y158998D02*
X365998Y159998D01*
X367997D01*
X368997Y158998D01*
Y155000D01*
X367997Y154000D01*
X365998D01*
X364998Y155000D01*
Y158998D01*
X227499Y81997D02*
X224500D01*
X223000Y80498D01*
Y74499D01*
X224500Y73000D01*
X227499D01*
X228998Y74499D01*
Y80498D01*
X227499Y81997D01*
X231997Y73000D02*
Y78998D01*
X233497D01*
X234996Y77499D01*
Y73000D01*
Y77499D01*
X236496Y78998D01*
X237995Y77499D01*
Y73000D01*
X240994D02*
X243993D01*
X242494D01*
Y78998D01*
X240994D01*
X254490D02*
X249991D01*
X248492Y77499D01*
Y74499D01*
X249991Y73000D01*
X254490D01*
X257489Y78998D02*
Y73000D01*
Y75999D01*
X258988Y77499D01*
X260488Y78998D01*
X261987D01*
X267986Y73000D02*
X270985D01*
X272484Y74499D01*
Y77499D01*
X270985Y78998D01*
X267986D01*
X266486Y77499D01*
Y74499D01*
X267986Y73000D01*
X275483D02*
Y78998D01*
X279982D01*
X281481Y77499D01*
Y73000D01*
X21500Y24998D02*
Y19000D01*
X24499D01*
X25499Y20000D01*
Y23998D01*
X24499Y24998D01*
X21500D01*
X27498D02*
X31497D01*
Y23998D01*
X27498Y20000D01*
Y19000D01*
X347000Y96498D02*
Y90500D01*
X349999D01*
X350999Y91500D01*
Y95498D01*
X349999Y96498D01*
X347000D01*
X352998D02*
X356997D01*
Y95498D01*
X352998Y91500D01*
Y90500D01*
X345500Y23998D02*
Y18000D01*
X348499D01*
X349499Y19000D01*
Y22998D01*
X348499Y23998D01*
X345500D01*
X351498Y22998D02*
X352498Y23998D01*
X354497D01*
X355497Y22998D01*
Y19000D01*
X354497Y18000D01*
X352498D01*
X351498Y19000D01*
Y22998D01*
X22500Y95998D02*
Y90000D01*
X25499D01*
X26499Y91000D01*
Y94998D01*
X25499Y95998D01*
X22500D01*
X28498Y94998D02*
X29498Y95998D01*
X31497D01*
X32497Y94998D01*
Y91000D01*
X31497Y90000D01*
X29498D01*
X28498Y91000D01*
Y94998D01*
X168499Y27042D02*
X167499Y28041D01*
X165500D01*
X164500Y27042D01*
Y23043D01*
X165500Y22043D01*
X167499D01*
X168499Y23043D01*
Y25042D01*
X166499D01*
X170498Y22043D02*
Y28041D01*
X174497Y22043D01*
Y28041D01*
X176496D02*
Y22043D01*
X179495D01*
X180495Y23043D01*
Y27042D01*
X179495Y28041D01*
X176496D01*
X79502Y36999D02*
X78503Y37999D01*
X76503D01*
X75504Y36999D01*
Y36000D01*
X76503Y35000D01*
X78503D01*
X79502Y34000D01*
Y33001D01*
X78503Y32001D01*
X76503D01*
X75504Y33001D01*
X81502Y37999D02*
Y32001D01*
X83501Y34000D01*
X85500Y32001D01*
Y37999D01*
X87500D02*
Y34000D01*
X89499Y32001D01*
X91498Y34000D01*
Y37999D01*
X93498Y35000D02*
X97496D01*
X95497Y36999D02*
Y33001D01*
X251100Y53080D02*
Y49081D01*
X253099Y47082D01*
X255099Y49081D01*
Y53080D01*
X261097Y52080D02*
X260097Y53080D01*
X258098D01*
X257098Y52080D01*
Y48081D01*
X258098Y47082D01*
X260097D01*
X261097Y48081D01*
X267095Y52080D02*
X266095Y53080D01*
X264096D01*
X263096Y52080D01*
Y48081D01*
X264096Y47082D01*
X266095D01*
X267095Y48081D01*
X273093Y47082D02*
X269094D01*
X273093Y51080D01*
Y52080D01*
X272093Y53080D01*
X270094D01*
X269094Y52080D01*
X255499Y26955D02*
X254499Y27955D01*
X252500D01*
X251500Y26955D01*
Y22956D01*
X252500Y21957D01*
X254499D01*
X255499Y22956D01*
Y24956D01*
X253499D01*
X257498Y21957D02*
Y27955D01*
X261497Y21957D01*
Y27955D01*
X263496D02*
Y21957D01*
X266495D01*
X267495Y22956D01*
Y26955D01*
X266495Y27955D01*
X263496D01*
X273493Y21957D02*
X269494D01*
X273493Y25955D01*
Y26955D01*
X272493Y27955D01*
X270494D01*
X269494Y26955D01*
X168002Y101751D02*
Y106249D01*
X170252D01*
X171001Y105499D01*
Y104000D01*
X170252Y103250D01*
X168002D01*
X169502D02*
X171001Y101751D01*
X175500Y105499D02*
X174750Y106249D01*
X173251D01*
X172501Y105499D01*
Y104750D01*
X173251Y104000D01*
X174750D01*
X175500Y103250D01*
Y102500D01*
X174750Y101751D01*
X173251D01*
X172501Y102500D01*
X176999Y106249D02*
X179999D01*
X178499D01*
Y101751D01*
X181498D02*
X182998D01*
X182248D01*
Y106249D01*
X181498Y105499D01*
X168026Y67040D02*
Y73038D01*
X171026D01*
X172025Y72038D01*
Y70039D01*
X171026Y69039D01*
X168026D01*
X170026D02*
X172025Y67040D01*
X174025D02*
X176024D01*
X175024D01*
Y73038D01*
X174025Y72038D01*
X286800Y112898D02*
Y111898D01*
X288799Y109899D01*
X290799Y111898D01*
Y112898D01*
X288799Y109899D02*
Y106900D01*
X296797D02*
X292798D01*
X296797Y110899D01*
Y111898D01*
X295797Y112898D01*
X293798D01*
X292798Y111898D01*
X64501Y96999D02*
Y95999D01*
X66501Y94000D01*
X68500Y95999D01*
Y96999D01*
X66501Y94000D02*
Y91001D01*
X70499D02*
X72499D01*
X71499D01*
Y96999D01*
X70499Y95999D01*
X232502Y111999D02*
Y107001D01*
X233501Y106001D01*
X235501D01*
X236500Y107001D01*
Y111999D01*
X242498Y106001D02*
X238500D01*
X242498Y110000D01*
Y110999D01*
X241499Y111999D01*
X239499D01*
X238500Y110999D01*
X139501Y112999D02*
Y108001D01*
X140501Y107001D01*
X142500D01*
X143500Y108001D01*
Y112999D01*
X145499Y107001D02*
X147499D01*
X146499D01*
Y112999D01*
X145499Y111999D01*
X348004Y108499D02*
Y103500D01*
X349003Y102501D01*
X351003D01*
X352002Y103500D01*
Y108499D01*
X358000Y102501D02*
X354002D01*
X358000Y106500D01*
Y107499D01*
X357001Y108499D01*
X355001D01*
X354002Y107499D01*
X360000Y101501D02*
X363998D01*
X365998Y108499D02*
Y102501D01*
X368997D01*
X369997Y103500D01*
Y107499D01*
X368997Y108499D01*
X365998D01*
X306751Y63500D02*
X306251Y63999D01*
X305251D01*
X304751Y63500D01*
Y61500D01*
X305251Y61001D01*
X306251D01*
X306751Y61500D01*
X307750Y61001D02*
X308750D01*
X308250D01*
Y63999D01*
X307750Y63500D01*
X311749Y61001D02*
Y63999D01*
X310249Y62500D01*
X312249D01*
X306751Y72500D02*
X306251Y73000D01*
X305251D01*
X304751Y72500D01*
Y70500D01*
X305251Y70000D01*
X306251D01*
X306751Y70500D01*
X307750Y70000D02*
X308750D01*
X308250D01*
Y73000D01*
X307750Y72500D01*
X310249D02*
X310749Y73000D01*
X311749D01*
X312249Y72500D01*
Y72000D01*
X311749Y71500D01*
X311249D01*
X311749D01*
X312249Y71000D01*
Y70500D01*
X311749Y70000D01*
X310749D01*
X310249Y70500D01*
X97751Y65000D02*
X97251Y65500D01*
X96251D01*
X95751Y65000D01*
Y63000D01*
X96251Y62501D01*
X97251D01*
X97751Y63000D01*
X98750Y62501D02*
X99750D01*
X99250D01*
Y65500D01*
X98750Y65000D01*
X103249Y62501D02*
X101249D01*
X103249Y64500D01*
Y65000D01*
X102749Y65500D01*
X101749D01*
X101249Y65000D01*
X98250Y76500D02*
X97751Y76999D01*
X96751D01*
X96251Y76500D01*
Y74500D01*
X96751Y74001D01*
X97751D01*
X98250Y74500D01*
X99250Y74001D02*
X100250D01*
X99750D01*
Y76999D01*
X99250Y76500D01*
X101749Y74001D02*
X102749D01*
X102249D01*
Y76999D01*
X101749Y76500D01*
X164500Y52998D02*
Y48999D01*
X166499Y47000D01*
X168499Y48999D01*
Y52998D01*
X174497Y51998D02*
X173497Y52998D01*
X171498D01*
X170498Y51998D01*
Y48000D01*
X171498Y47000D01*
X173497D01*
X174497Y48000D01*
X180495Y51998D02*
X179495Y52998D01*
X177496D01*
X176496Y51998D01*
Y48000D01*
X177496Y47000D01*
X179495D01*
X180495Y48000D01*
X108100Y34798D02*
Y29800D01*
X109100Y28800D01*
X111099D01*
X112099Y29800D01*
Y34798D01*
X114098Y33798D02*
X115098Y34798D01*
X117097D01*
X118097Y33798D01*
Y32799D01*
X117097Y31799D01*
X116097D01*
X117097D01*
X118097Y30799D01*
Y29800D01*
X117097Y28800D01*
X115098D01*
X114098Y29800D01*
X190753Y101251D02*
Y105749D01*
X193002D01*
X193752Y104999D01*
Y103500D01*
X193002Y102750D01*
X190753D01*
X192252D02*
X193752Y101251D01*
X198250Y104999D02*
X197501Y105749D01*
X196001D01*
X195251Y104999D01*
Y104250D01*
X196001Y103500D01*
X197501D01*
X198250Y102750D01*
Y102000D01*
X197501Y101251D01*
X196001D01*
X195251Y102000D01*
X199750Y105749D02*
X202749D01*
X201249D01*
Y101251D01*
X207247D02*
X204248D01*
X207247Y104250D01*
Y104999D01*
X206498Y105749D01*
X204998D01*
X204248Y104999D01*
X197327Y66540D02*
Y72538D01*
X200326D01*
X201326Y71538D01*
Y69539D01*
X200326Y68539D01*
X197327D01*
X199327D02*
X201326Y66540D01*
X207324D02*
X203325D01*
X207324Y70538D01*
Y71538D01*
X206324Y72538D01*
X204325D01*
X203325Y71538D01*
X34004Y30001D02*
Y35999D01*
X37003D01*
X38003Y34999D01*
Y33000D01*
X37003Y32000D01*
X34004D01*
X41002Y30001D02*
X43001D01*
X44001Y31001D01*
Y33000D01*
X43001Y34000D01*
X41002D01*
X40002Y33000D01*
Y31001D01*
X41002Y30001D01*
X46000Y34000D02*
Y31001D01*
X47000Y30001D01*
X48000Y31001D01*
X49000Y30001D01*
X49999Y31001D01*
Y34000D01*
X54998Y30001D02*
X52998D01*
X51999Y31001D01*
Y33000D01*
X52998Y34000D01*
X54998D01*
X55997Y33000D01*
Y32000D01*
X51999D01*
X57997Y34000D02*
Y30001D01*
Y32000D01*
X58996Y33000D01*
X59996Y34000D01*
X60996D01*
X227504Y160499D02*
Y155500D01*
X228503Y154501D01*
X230503D01*
X231502Y155500D01*
Y160499D01*
X237500Y154501D02*
X233502D01*
X237500Y158500D01*
Y159499D01*
X236501Y160499D01*
X234501D01*
X233502Y159499D01*
X239500Y153501D02*
X243498D01*
X249497Y159499D02*
X248497Y160499D01*
X246497D01*
X245498Y159499D01*
Y155500D01*
X246497Y154501D01*
X248497D01*
X249497Y155500D01*
X10003Y109499D02*
Y104500D01*
X11003Y103501D01*
X13002D01*
X14002Y104500D01*
Y109499D01*
X16002Y103501D02*
X18001D01*
X17001D01*
Y109499D01*
X16002Y108499D01*
X21000Y102501D02*
X24999D01*
X26998Y109499D02*
Y103501D01*
X29997D01*
X30997Y104500D01*
Y108499D01*
X29997Y109499D01*
X26998D01*
X131003Y160499D02*
Y155500D01*
X132003Y154501D01*
X134002D01*
X135002Y155500D01*
Y160499D01*
X137002Y154501D02*
X139001D01*
X138001D01*
Y160499D01*
X137002Y159499D01*
X142000Y153501D02*
X145999D01*
X147998Y160499D02*
Y154501D01*
X150997D01*
X151997Y155500D01*
Y156500D01*
X150997Y157500D01*
X147998D01*
X150997D01*
X151997Y158500D01*
Y159499D01*
X150997Y160499D01*
X147998D01*
X138100Y56531D02*
X137100Y57530D01*
X135100D01*
X134101Y56531D01*
Y52532D01*
X135100Y51533D01*
X137100D01*
X138100Y52532D01*
X140099Y51533D02*
X142098D01*
X141099D01*
Y57530D01*
X140099Y56531D01*
X145097D02*
X146097Y57530D01*
X148096D01*
X149096Y56531D01*
Y52532D01*
X148096Y51533D01*
X146097D01*
X145097Y52532D01*
Y56531D01*
X45003Y160499D02*
Y155500D01*
X46003Y154501D01*
X48002D01*
X49002Y155500D01*
Y160499D01*
X51002Y154501D02*
X53001D01*
X52001D01*
Y160499D01*
X51002Y159499D01*
X56000Y153501D02*
X59999D01*
X65997Y159499D02*
X64997Y160499D01*
X62998D01*
X61998Y159499D01*
Y155500D01*
X62998Y154501D01*
X64997D01*
X65997Y155500D01*
X317004Y160499D02*
Y155500D01*
X318003Y154501D01*
X320003D01*
X321002Y155500D01*
Y160499D01*
X327000Y154501D02*
X323002D01*
X327000Y158500D01*
Y159499D01*
X326001Y160499D01*
X324001D01*
X323002Y159499D01*
X329000Y153501D02*
X332998D01*
X334998Y160499D02*
Y154501D01*
X337997D01*
X338997Y155500D01*
Y156500D01*
X337997Y157500D01*
X334998D01*
X337997D01*
X338997Y158500D01*
Y159499D01*
X337997Y160499D01*
X334998D01*
M02*
